<svg id="图层_1" data-name="图层 1" xmlns="http://www.w3.org/2000/svg" viewBox="0 0 290 28.7"><defs><style>.cls-1{fill:#333;}</style></defs><title>H5 logo</title><path class="cls-1" d="M19.43,25l-2.17.29a7.89,7.89,0,0,0-.88-2.92,6.65,6.65,0,0,0-1.72-2.05,7.08,7.08,0,0,0-2.41-1.2,10.7,10.7,0,0,0-3-.39,8.07,8.07,0,0,0-3.88.81,2.77,2.77,0,0,0-1.48,2.63,2.19,2.19,0,0,0,.72,1.74,5.5,5.5,0,0,0,1.88,1,18.06,18.06,0,0,0,2.68.67c1,.17,2,.36,3.07.56a28.77,28.77,0,0,1,3.07.79A9.45,9.45,0,0,1,18,28.24a6.4,6.4,0,0,1,1.88,2.12,6.52,6.52,0,0,1,.72,3.23A8,8,0,0,1,20,37a6.29,6.29,0,0,1-1.9,2.37,8.29,8.29,0,0,1-3,1.4,15.19,15.19,0,0,1-3.83.45,12.85,12.85,0,0,1-3.72-.47,10.55,10.55,0,0,1-2.82-1.28,2,2,0,0,0-1.1-.39c-.15,0-.39.16-.72.47a3.21,3.21,0,0,0-.74,1.15H0v-8.9l2.14-.19A7.07,7.07,0,0,0,3,34.4a6.71,6.71,0,0,0,1.8,2.16A8.22,8.22,0,0,0,7.44,38a11.06,11.06,0,0,0,3.45.5,7,7,0,0,0,4.22-1.08A4,4,0,0,0,16.57,34a1.87,1.87,0,0,0-.45-1.26,3.51,3.51,0,0,0-1.24-.86,9.55,9.55,0,0,0-1.78-.57c-.67-.15-1.39-.29-2.15-.4l-2.29-.38c-.77-.13-1.51-.29-2.23-.48A14.7,14.7,0,0,1,3.8,29a6.7,6.7,0,0,1-2-1.41A5.81,5.81,0,0,1,.6,25.58a8.37,8.37,0,0,1-.44-2.85,7.41,7.41,0,0,1,.42-2.47A5.54,5.54,0,0,1,2,18.12a7.19,7.19,0,0,1,2.58-1.51A11.74,11.74,0,0,1,8.51,16a14.27,14.27,0,0,1,3.68.41,11.45,11.45,0,0,1,2.63,1.05,2.47,2.47,0,0,0,1.2.39,1.44,1.44,0,0,0,.86-.42,3.37,3.37,0,0,0,.8-.94h1.75Z" transform="translate(0 -15.65)"/><path class="cls-1" d="M39.26,37.48c0,1,.32,1.44,1,1.44a.72.72,0,0,0,.68-.44,2.08,2.08,0,0,0,.23-1V35.56h1.53V37a5.7,5.7,0,0,1-.26,1.82,2.9,2.9,0,0,1-.75,1.21,2.85,2.85,0,0,1-1.15.65,5.19,5.19,0,0,1-1.45.19,3.71,3.71,0,0,1-1.49-.27,3.3,3.3,0,0,1-1-.73,3.36,3.36,0,0,1-.65-1,8,8,0,0,1-.36-1.23,5.42,5.42,0,0,1-1,1.36A6.87,6.87,0,0,1,33,40.14a8.27,8.27,0,0,1-2,.79,8.94,8.94,0,0,1-2.37.3A6.68,6.68,0,0,1,24.19,40a4.33,4.33,0,0,1-1.41-3.4,4.26,4.26,0,0,1,.5-2.16A4.5,4.5,0,0,1,24.68,33a7.46,7.46,0,0,1,2.08-.92c.79-.23,1.64-.44,2.54-.62l2.79-.54c1-.17,1.92-.39,2.88-.65v-1a5.34,5.34,0,0,0-.21-1.53,3.25,3.25,0,0,0-.69-1.25,3.31,3.31,0,0,0-1.18-.85,4.36,4.36,0,0,0-1.69-.31,10,10,0,0,0-2.78.33,5,5,0,0,0-1.8.88,2.23,2.23,0,0,1,1.26.48,1.48,1.48,0,0,1,.52,1.21,1.94,1.94,0,0,1-.58,1.47,2.38,2.38,0,0,1-1.72.57,2.25,2.25,0,0,1-1.71-.6A2.33,2.33,0,0,1,23.82,28a3,3,0,0,1,.52-1.63,5.09,5.09,0,0,1,1.5-1.45,8.2,8.2,0,0,1,2.42-1,12.2,12.2,0,0,1,3.29-.4,14.48,14.48,0,0,1,2.9.28,7.38,7.38,0,0,1,2.47.94,4.88,4.88,0,0,1,1.7,1.82,6,6,0,0,1,.64,2.92ZM35,31.54c-1.39.35-2.59.67-3.61,1a15.15,15.15,0,0,0-2.53.94,4.2,4.2,0,0,0-1.5,1.16,2.64,2.64,0,0,0-.48,1.62A2.2,2.2,0,0,0,27.69,38a3.86,3.86,0,0,0,2.47.65,5.49,5.49,0,0,0,2.94-.79A5.69,5.69,0,0,0,35,36.06Z" transform="translate(0 -15.65)"/><path class="cls-1" d="M65.09,26a4.3,4.3,0,0,0-1.61.27,1.56,1.56,0,0,0-.89.83L57,40.67H52.81L47.22,27.12c-.33-.76-1.09-1.13-2.28-1.13V24.13h9.43V26H52.61c-.63,0-.94.2-.94.61a1.21,1.21,0,0,0,.1.52l4.32,10.79,4.39-10.53a1.08,1.08,0,0,0,.13-.52c0-.58-.47-.87-1.4-.87H58V24.13h7.12Z" transform="translate(0 -15.65)"/><path class="cls-1" d="M74.91,37.36c0,1,.89,1.46,2.82,1.46v1.85H67.66V38.82c1.86,0,2.79-.49,2.79-1.46V27.48c0-1-.93-1.49-2.79-1.49V24.13h7.25Zm.39-18.69a2.75,2.75,0,0,1-.8,2,2.64,2.64,0,0,1-2,.83,2.66,2.66,0,0,1-1.09-.23,2.94,2.94,0,0,1-.87-.6,2.86,2.86,0,0,1-.6-.88,2.72,2.72,0,0,1,.6-3.05,2.74,2.74,0,0,1,2-.8,2.66,2.66,0,0,1,2,.81,2.7,2.7,0,0,1,.82,2" transform="translate(0 -15.65)"/><path class="cls-1" d="M87.51,37.36c0,1,.95,1.46,2.83,1.46v1.86H80.27V38.82c1.86,0,2.79-.48,2.79-1.46V19q0-1.47-2.79-1.47V15.65h7.24Z" transform="translate(0 -15.65)"/><path class="cls-1" d="M100.12,37.36c0,1,.95,1.46,2.83,1.46v1.86H92.88V38.82c1.86,0,2.79-.48,2.79-1.46V19q0-1.47-2.79-1.47V15.65h7.24Z" transform="translate(0 -15.65)"/><path class="cls-1" d="M110,32.16a9.79,9.79,0,0,0,1.24,5.15,3.94,3.94,0,0,0,3.54,1.81,6,6,0,0,0,3.28-.91,4.85,4.85,0,0,0,2-3l2,.39a9.33,9.33,0,0,1-.86,2.08,6.83,6.83,0,0,1-1.48,1.79,7.22,7.22,0,0,1-2.2,1.25,8.75,8.75,0,0,1-3,.47,13.22,13.22,0,0,1-3.28-.41,7.35,7.35,0,0,1-2.85-1.42,7.16,7.16,0,0,1-2-2.71,10.61,10.61,0,0,1-.77-4.32,10.32,10.32,0,0,1,.61-3.63A8,8,0,0,1,108,25.93a7.88,7.88,0,0,1,2.78-1.83,10.25,10.25,0,0,1,3.76-.65q8.19,0,8.19,8.71Zm8.65-1.69a7.58,7.58,0,0,0-.26-2,5.3,5.3,0,0,0-.78-1.64,4.05,4.05,0,0,0-1.29-1.11,3.73,3.73,0,0,0-1.77-.41,4.14,4.14,0,0,0-3,1.21,6.25,6.25,0,0,0-1.49,4Z" transform="translate(0 -15.65)"/><path class="cls-1" d="M162.39,28.13a4.68,4.68,0,0,0-2.08.34,1.16,1.16,0,0,0-.62,1.1,9.83,9.83,0,0,1-1,4.15,11.87,11.87,0,0,1-2.82,3.8,7.73,7.73,0,0,0,1.43.73,3.64,3.64,0,0,0,1.36.28,2.61,2.61,0,0,0,1.79-.59,2.36,2.36,0,0,0,.68-1.88V34.24H163v1.82a5.44,5.44,0,0,1-1.23,3.79A4.86,4.86,0,0,1,158,41.19a7.43,7.43,0,0,1-2.5-.43A12.57,12.57,0,0,1,153,39.54,15.35,15.35,0,0,1,150,40.76a13,13,0,0,1-3.4.43,15.2,15.2,0,0,1-3.57-.4,9,9,0,0,1-3-1.27,6.22,6.22,0,0,1-2-2.23,6.75,6.75,0,0,1-.75-3.31,7.13,7.13,0,0,1,.46-2.66,6.93,6.93,0,0,1,1.23-2.07,8.91,8.91,0,0,1,1.82-1.57A18.22,18.22,0,0,1,143,26.44a11.31,11.31,0,0,1-1.13-4.58,6.13,6.13,0,0,1,.43-2.34,5.32,5.32,0,0,1,1.27-1.85,5.84,5.84,0,0,1,2-1.22,7.72,7.72,0,0,1,2.68-.44,5.39,5.39,0,0,1,3.67,1.25,4.53,4.53,0,0,1,1.43,3.59,5,5,0,0,1-.46,2.23,5.81,5.81,0,0,1-1.21,1.69,9.66,9.66,0,0,1-1.74,1.31c-.65.39-1.32.76-2,1.11a41.37,41.37,0,0,0,2.62,4.58,25.5,25.5,0,0,0,3.17,4,9.61,9.61,0,0,0,2-2.76,7.76,7.76,0,0,0,.78-3.45,1.15,1.15,0,0,0-.63-1.09,4.7,4.7,0,0,0-2.1-.34V26.28h8.65ZM144.32,29.4a8,8,0,0,0-1.95,1.79,4,4,0,0,0-.78,2.56,5.09,5.09,0,0,0,.37,2,4.46,4.46,0,0,0,1,1.53,4.56,4.56,0,0,0,1.58,1,5.53,5.53,0,0,0,2,.35,9.05,9.05,0,0,0,2-.23,8.72,8.72,0,0,0,2-.69A26.44,26.44,0,0,1,147,33.82a28.88,28.88,0,0,1-2.71-4.42m2.6-4.62a15.32,15.32,0,0,0,1.4-.74,5.33,5.33,0,0,0,1.13-.9,3.86,3.86,0,0,0,.77-1.12,3.54,3.54,0,0,0,.27-1.43,2.31,2.31,0,0,0-.55-1.75,2.22,2.22,0,0,0-1.59-.52,2.18,2.18,0,0,0-1.06.24,2,2,0,0,0-.71.65,2.8,2.8,0,0,0-.41.93,4.06,4.06,0,0,0-.13,1,6.86,6.86,0,0,0,.23,1.64,16.56,16.56,0,0,0,.65,2" transform="translate(0 -15.65)"/><path class="cls-1" d="M203.69,41.88a3.75,3.75,0,0,1-1.53,1.75,4.58,4.58,0,0,1-2.57.72,6.19,6.19,0,0,1-3.54-1,11.65,11.65,0,0,1-2.63-2.49,15.38,15.38,0,0,1-3.41.32,17.78,17.78,0,0,1-4.78-.61,9.42,9.42,0,0,1-3.82-2,9.63,9.63,0,0,1-2.53-3.73,15.24,15.24,0,0,1-.93-5.68,19,19,0,0,1,.72-5.43,10.46,10.46,0,0,1,2.24-4.13,10,10,0,0,1,3.9-2.61A16.05,16.05,0,0,1,190.5,16a17.23,17.23,0,0,1,4.82.65,9.53,9.53,0,0,1,3.84,2.13,9.78,9.78,0,0,1,2.51,3.88,16.67,16.67,0,0,1,.91,5.9,14.89,14.89,0,0,1-1.39,6.7,9.88,9.88,0,0,1-4.26,4.37,7.76,7.76,0,0,0,1.88,1.51,4.38,4.38,0,0,0,2.18.57,2,2,0,0,0,1.82-.88Zm-9.07-5.43A5.53,5.53,0,0,0,197,33.38a14.81,14.81,0,0,0,.65-4.54,20.87,20.87,0,0,0-.5-5,8.22,8.22,0,0,0-1.42-3.09,4.92,4.92,0,0,0-2.2-1.6,8.61,8.61,0,0,0-2.85-.45,9.15,9.15,0,0,0-3.48.6,6,6,0,0,0-2.41,1.74,7.32,7.32,0,0,0-1.39,2.79,14.9,14.9,0,0,0-.44,3.77,25.85,25.85,0,0,0,.26,3.9,12.55,12.55,0,0,0,.72,2.86,5.43,5.43,0,0,1,2-1.55,5.5,5.5,0,0,1,2.15-.43,6.05,6.05,0,0,1,2,.31,6.72,6.72,0,0,1,1.74.86,10.18,10.18,0,0,1,1.53,1.28,15.58,15.58,0,0,1,1.36,1.61m-10.17-.54a4.88,4.88,0,0,0,2.31,2.16,8.34,8.34,0,0,0,3.25.59c.32,0,.64,0,.94,0a6.21,6.21,0,0,0,.88-.13,17.69,17.69,0,0,0-2.34-2.84,3.73,3.73,0,0,0-2.63-1,2.67,2.67,0,0,0-1.17.3,3.84,3.84,0,0,0-1.24,1" transform="translate(0 -15.65)"/><path class="cls-1" d="M224.62,37.36c0,1,.85,1.46,2.56,1.46v1.86h-7V37.36a8.61,8.61,0,0,1-1.08,1.38,7,7,0,0,1-1.47,1.17,7.55,7.55,0,0,1-1.85.8,8.36,8.36,0,0,1-2.26.29,5.45,5.45,0,0,1-3.8-1.14,4.84,4.84,0,0,1-1.23-3.7V27.45c0-1-.95-1.46-2.83-1.46V24.13h7.15V34.7a5.51,5.51,0,0,0,.57,2.91,2,2,0,0,0,1.83.86,4.19,4.19,0,0,0,2.89-1.21,8,8,0,0,0,2.08-3.07V27.48a1.19,1.19,0,0,0-.68-1.12,4.64,4.64,0,0,0-2.14-.37V24.13h7.28Z" transform="translate(0 -15.65)"/><path class="cls-1" d="M237,37.36c0,1,.9,1.46,2.83,1.46v1.85H229.72V38.82c1.86,0,2.79-.49,2.79-1.46V27.48c0-1-.93-1.49-2.79-1.49V24.13H237Zm.39-18.69a2.74,2.74,0,0,1-.79,2,2.64,2.64,0,0,1-2,.83,2.66,2.66,0,0,1-1.09-.23,2.94,2.94,0,0,1-.87-.6,3.07,3.07,0,0,1-.61-.88,2.62,2.62,0,0,1-.22-1.09,2.58,2.58,0,0,1,.83-2,2.73,2.73,0,0,1,2-.8,2.66,2.66,0,0,1,1.95.81,2.69,2.69,0,0,1,.81,2" transform="translate(0 -15.65)"/><path class="cls-1" d="M262.05,37.36c0,1,1,1.46,2.86,1.46v1.86h-9.49V38.82c1.45,0,2.18-.48,2.18-1.46V30.15a5.07,5.07,0,0,0-.65-2.93,2.08,2.08,0,0,0-1.75-.88,4.53,4.53,0,0,0-1.68.33,6.23,6.23,0,0,0-1.57.91A7.79,7.79,0,0,0,250.58,29a7.94,7.94,0,0,0-1,1.7v6.7c0,1,.73,1.46,2.18,1.46v1.86h-9.42V38.82c1.86,0,2.79-.48,2.79-1.46V27.45c0-1-.93-1.46-2.79-1.46V24.13h7.24v3.32a10.14,10.14,0,0,1,3.1-2.62,8.6,8.6,0,0,1,4.23-1A5.7,5.7,0,0,1,260.7,25a4.57,4.57,0,0,1,1.35,3.7Z" transform="translate(0 -15.65)"/><path class="cls-1" d="M287.14,37.36c0,1,.95,1.46,2.86,1.46v1.86h-9.49V38.82c1.45,0,2.18-.48,2.18-1.46V30.15a5.07,5.07,0,0,0-.65-2.93,2.1,2.1,0,0,0-1.76-.88,4.48,4.48,0,0,0-1.67.33,6.46,6.46,0,0,0-1.58.91A8.09,8.09,0,0,0,275.67,29a7.94,7.94,0,0,0-1,1.7v6.7c0,1,.73,1.46,2.18,1.46v1.86h-9.43V38.82c1.87,0,2.8-.48,2.8-1.46V27.45c0-1-.93-1.46-2.8-1.46V24.13h7.25v3.32a10.1,10.1,0,0,1,3.09-2.62,8.66,8.66,0,0,1,4.24-1A5.72,5.72,0,0,1,285.79,25a4.57,4.57,0,0,1,1.35,3.7Z" transform="translate(0 -15.65)"/></svg>